<svg width="32" height="32" viewBox="0 0 32 32" fill="none" xmlns="http://www.w3.org/2000/svg">
<rect width="32" height="32" rx="16" fill="white"/>
<path d="M14.6667 18.0002L18.1267 16.0002L14.6667 14.0002V18.0002ZM22.3733 12.7802C22.46 13.0935 22.52 13.5135 22.56 14.0468C22.6067 14.5802 22.6267 15.0402 22.6267 15.4402L22.6667 16.0002C22.6667 17.4602 22.56 18.5335 22.3733 19.2202C22.2067 19.8202 21.82 20.2068 21.22 20.3735C20.9067 20.4602 20.3333 20.5202 19.4533 20.5602C18.5867 20.6068 17.7933 20.6268 17.06 20.6268L16 20.6668C13.2067 20.6668 11.4667 20.5602 10.78 20.3735C10.18 20.2068 9.79333 19.8202 9.62667 19.2202C9.54 18.9068 9.48 18.4868 9.44 17.9535C9.39333 17.4202 9.37333 16.9602 9.37333 16.5602L9.33333 16.0002C9.33333 14.5402 9.44 13.4668 9.62667 12.7802C9.79333 12.1802 10.18 11.7935 10.78 11.6268C11.0933 11.5402 11.6667 11.4802 12.5467 11.4402C13.4133 11.3935 14.2067 11.3735 14.94 11.3735L16 11.3335C18.7933 11.3335 20.5333 11.4402 21.22 11.6268C21.82 11.7935 22.2067 12.1802 22.3733 12.7802Z" fill="#A02320"/>
<rect x="0.5" y="0.5" width="31" height="31" rx="15.5" stroke="#A02320"/>
</svg>
