<svg xmlns="http://www.w3.org/2000/svg" width="55" height="48" fill="none" viewBox="0 0 55 48"><path fill="#fff" stroke="#a02320" stroke-linecap="round" stroke-linejoin="round" stroke-width="2" d="M53.085 12.004a1.9 1.9 0 0 1 .604 1.065c.078.395.042.797-.068 1.166a3.27 3.27 0 0 1-1.394 1.8v-.002l-17.2 10.708 6.892 6.062c.24.217.371.494.422.767l.017.116.006.112c.005.186-.024.364-.074.526l-.069.186-.09.175c-.096.17-.219.323-.359.454a1.8 1.8 0 0 1-.682.401l-.024.008L2.89 46.535c-.285.106-.644.15-1.008.02a1.32 1.32 0 0 1-.834-.911c-.101-.381-.03-.75.096-1.036.112-.255.287-.48.497-.66H1.64L18.433 27.93l-6.568-5.777h0a1.9 1.9 0 0 1-.607-1.04 2.4 2.4 0 0 1 .05-1.162c.104-.37.285-.72.517-1.027.231-.306.518-.573.84-.78L38.427 1.438l.004-.004h0c.391-.249.85-.418 1.328-.433a1.92 1.92 0 0 1 1.36.482V1.48z"/></svg>